<svg width="70" height="14" viewBox="0 0 70 14" fill="none" xmlns="http://www.w3.org/2000/svg">
<path d="M6.61958 1.17082C6.73932 0.802296 7.26068 0.802296 7.38042 1.17082L8.48179 4.56049C8.53534 4.7253 8.68892 4.83688 8.86222 4.83688H12.4263C12.8138 4.83688 12.9749 5.33273 12.6614 5.56049L9.77801 7.65542C9.63782 7.75728 9.57915 7.93782 9.6327 8.10263L10.7341 11.4923C10.8538 11.8608 10.432 12.1673 10.1185 11.9395L7.23511 9.84458C7.09492 9.74273 6.90508 9.74273 6.76489 9.84458L3.88146 11.9395C3.56798 12.1673 3.14619 11.8608 3.26593 11.4923L4.3673 8.10263C4.42084 7.93782 4.36218 7.75728 4.22199 7.65542L1.33856 5.56049C1.02508 5.33273 1.18619 4.83688 1.57368 4.83688H5.13778C5.31108 4.83688 5.46466 4.7253 5.51821 4.56049L6.61958 1.17082Z" fill="#F5B840"/>
<path d="M34.6196 1.17082C34.7393 0.802296 35.2607 0.802296 35.3804 1.17082L36.4818 4.56049C36.5353 4.7253 36.6889 4.83688 36.8622 4.83688H40.4263C40.8138 4.83688 40.9749 5.33273 40.6614 5.56049L37.778 7.65542C37.6378 7.75728 37.5792 7.93782 37.6327 8.10263L38.7341 11.4923C38.8538 11.8608 38.432 12.1673 38.1185 11.9395L35.2351 9.84458C35.0949 9.74273 34.9051 9.74273 34.7649 9.84458L31.8815 11.9395C31.568 12.1673 31.1462 11.8608 31.2659 11.4923L32.3673 8.10263C32.4208 7.93782 32.3622 7.75728 32.222 7.65542L29.3386 5.56049C29.0251 5.33273 29.1862 4.83688 29.5737 4.83688H33.1378C33.3111 4.83688 33.4647 4.7253 33.5182 4.56049L34.6196 1.17082Z" fill="#F5B840"/>
<path d="M20.6196 1.17082C20.7393 0.802296 21.2607 0.802296 21.3804 1.17082L22.4818 4.56049C22.5353 4.7253 22.6889 4.83688 22.8622 4.83688H26.4263C26.8138 4.83688 26.9749 5.33273 26.6614 5.56049L23.778 7.65542C23.6378 7.75728 23.5792 7.93782 23.6327 8.10263L24.7341 11.4923C24.8538 11.8608 24.432 12.1673 24.1185 11.9395L21.2351 9.84458C21.0949 9.74273 20.9051 9.74273 20.7649 9.84458L17.8815 11.9395C17.568 12.1673 17.1462 11.8608 17.2659 11.4923L18.3673 8.10263C18.4208 7.93782 18.3622 7.75728 18.222 7.65542L15.3386 5.56049C15.0251 5.33273 15.1862 4.83688 15.5737 4.83688H19.1378C19.3111 4.83688 19.4647 4.7253 19.5182 4.56049L20.6196 1.17082Z" fill="#F5B840"/>
<path d="M48.6196 1.17082C48.7393 0.802296 49.2607 0.802296 49.3804 1.17082L50.4818 4.56049C50.5353 4.7253 50.6889 4.83688 50.8622 4.83688H54.4263C54.8138 4.83688 54.9749 5.33273 54.6614 5.56049L51.778 7.65542C51.6378 7.75728 51.5792 7.93782 51.6327 8.10263L52.7341 11.4923C52.8538 11.8608 52.432 12.1673 52.1185 11.9395L49.2351 9.84458C49.0949 9.74273 48.9051 9.74273 48.7649 9.84458L45.8815 11.9395C45.568 12.1673 45.1462 11.8608 45.2659 11.4923L46.3673 8.10263C46.4208 7.93782 46.3622 7.75728 46.222 7.65542L43.3386 5.56049C43.0251 5.33273 43.1862 4.83688 43.5737 4.83688H47.1378C47.3111 4.83688 47.4647 4.7253 47.5182 4.56049L48.6196 1.17082Z" fill="#F5B840"/>
<path d="M62.6196 1.17082C62.7393 0.802296 63.2607 0.802296 63.3804 1.17082L64.4818 4.56049C64.5353 4.7253 64.6889 4.83688 64.8622 4.83688H68.4263C68.8138 4.83688 68.9749 5.33273 68.6614 5.56049L65.778 7.65542C65.6378 7.75728 65.5792 7.93782 65.6327 8.10263L66.7341 11.4923C66.8538 11.8608 66.432 12.1673 66.1185 11.9395L63.2351 9.84458C63.0949 9.74273 62.9051 9.74273 62.7649 9.84458L59.8815 11.9395C59.568 12.1673 59.1462 11.8608 59.2659 11.4923L60.3673 8.10263C60.4208 7.93782 60.3622 7.75728 60.222 7.65542L57.3386 5.56049C57.0251 5.33273 57.1862 4.83688 57.5737 4.83688H61.1378C61.3111 4.83688 61.4647 4.7253 61.5182 4.56049L62.6196 1.17082Z" fill="#F5B840"/>
</svg>
